<?xml version="1.0" encoding="utf-8"?>
<!-- Generator: Adobe Illustrator 18.0.0, SVG Export Plug-In . SVG Version: 6.00 Build 0)  -->
<!DOCTYPE svg PUBLIC "-//W3C//DTD SVG 1.1//EN" "http://www.w3.org/Graphics/SVG/1.1/DTD/svg11.dtd">
<svg version="1.1"
	 id="svg3109" shape-rendering="crispEdges" inkscape:export-ydpi="230.85001" inkscape:export-xdpi="230.85001" inkscape:export-filename="E:\MisDocs_GCardelle\Descargas\DevFest 2015cyan.png" inkscape:version="0.91 r13725" sodipodi:docname="DevFest 2015.svg" xmlns:dc="http://purl.org/dc/elements/1.1/" xmlns:cc="http://creativecommons.org/ns#" xmlns:rdf="http://www.w3.org/1999/02/22-rdf-syntax-ns#" xmlns:svg="http://www.w3.org/2000/svg" xmlns:sodipodi="http://sodipodi.sourceforge.net/DTD/sodipodi-0.dtd" xmlns:inkscape="http://www.inkscape.org/namespaces/inkscape"
	 xmlns="http://www.w3.org/2000/svg" xmlns:xlink="http://www.w3.org/1999/xlink" x="0px" y="0px" viewBox="0 0 612 792"
	 enable-background="new 0 0 612 792" xml:space="preserve">
<sodipodi:namedview  inkscape:snap-bbox-edge-midpoints="false" inkscape:showpageshadow="false" fit-margin-bottom="0" fit-margin-right="0" inkscape:snap-nodes="false" inkscape:snap-bbox-midpoints="false" inkscape:bbox-nodes="true" inkscape:bbox-paths="true" inkscape:snap-bbox="true" inkscape:snap-global="true" inkscape:snap-to-guides="true" inkscape:snap-grids="true" inkscape:window-maximized="1" inkscape:window-y="-8" inkscape:window-x="-8" inkscape:window-height="705" inkscape:window-width="1366" inkscape:pageshadow="2" inkscape:current-layer="layer1" inkscape:pageopacity="0.0" inkscape:document-units="px" showborder="false" borderlayer="false" fit-margin-left="0" fit-margin-top="0" showgrid="false" inkscape:cy="311.87655" inkscape:cx="399.00871" inkscape:zoom="0.7" borderopacity="1.0" bordercolor="#666666" pagecolor="#ffffff" id="base">
	</sodipodi:namedview>
<g id="layer1" transform="translate(50.298078,-343.25189)" inkscape:groupmode="layer" inkscape:label="Capa 1">
	<g id="g4006" transform="translate(-218.85714,91.129594)" inkscape:export-ydpi="230.85001" inkscape:export-xdpi="230.85001">
		<path id="path3216" inkscape:connector-curvature="0" sodipodi:nodetypes="ccccccc" fill="#FFFFFF" d="M364.8,302.4l295.5,438.4
			l44.9-67.3c8.8-18.5,6.9-36-0.8-51.1L510,332.3c-12.4-16.4-30.8-28.9-56.5-30L364.8,302.4z"/>
		<path id="path3218" inkscape:connector-curvature="0" sodipodi:nodetypes="ccccccc" fill="#FFFFFF" d="M364.8,302.3l-85.1,0.4
			c-22,1.6-21.5,17.2-14,28.2l316.5,470.4c11.4,16.1,8.7,41.4,0.8,53.6l77.4-114.4L364.8,302.3z"/>
		<path id="path3220" inkscape:connector-curvature="0" sodipodi:nodetypes="ccccccc" fill="#FFFFFF" d="M459.6,619.1
			c8.2,17.8,9.6,37.6,1.5,56L268,963.8c-12.5,14.8-8.1,29.8,13.9,30.9l82.2-0.3L539,736.8L459.6,619.1z"/>
		<path id="path3222" inkscape:connector-curvature="0" sodipodi:nodetypes="ccccccc" fill="#FFFFFF" d="M538.9,736.7l47,70.1
			c7,16.6,5,36.6-2.4,47.7l-74.4,111.3c-10.2,12.4-25.7,26.9-54.1,28.8l-90.7-0.1L538.9,736.7z"/>
	</g>
</g>
</svg>
